<svg width="360" height="360" viewBox="0 0 360 360" fill="none" xmlns="http://www.w3.org/2000/svg">
<rect width="360" height="360" fill="#121212"/>
<path d="M224.151 104.151C224.151 128.535 204.384 148.302 180 148.302C155.616 148.302 135.849 128.535 135.849 104.151C135.849 79.7671 155.616 60 180 60C204.384 60 224.151 79.7671 224.151 104.151Z" fill="#BAF300"/>
<path fill-rule="evenodd" clip-rule="evenodd" d="M255.849 224.151C280.233 224.151 300 204.384 300 180C300 155.616 280.233 135.849 255.849 135.849C231.465 135.849 211.698 155.616 211.698 180C211.698 204.384 231.465 224.151 255.849 224.151ZM246.792 155.094C238.039 155.094 230.943 162.19 230.943 170.943V189.057C230.943 197.81 238.039 204.906 246.792 204.906H264.906C273.659 204.906 280.755 197.81 280.755 189.057V170.943C280.755 162.19 273.659 155.094 264.906 155.094H246.792Z" fill="#BAF300"/>
<path fill-rule="evenodd" clip-rule="evenodd" d="M104.151 224.151C128.535 224.151 148.302 204.384 148.302 180C148.302 155.616 128.535 135.849 104.151 135.849C79.7671 135.849 60 155.616 60 180C60 204.384 79.7671 224.151 104.151 224.151ZM95.0943 155.094C86.3411 155.094 79.2453 162.19 79.2453 170.943V189.057C79.2453 197.81 86.3411 204.906 95.0943 204.906H113.208C121.961 204.906 129.057 197.81 129.057 189.057V170.943C129.057 162.19 121.961 155.094 113.208 155.094H95.0943Z" fill="#BAF300"/>
<path fill-rule="evenodd" clip-rule="evenodd" d="M180 300C204.384 300 224.151 280.233 224.151 255.849C224.151 231.465 204.384 211.698 180 211.698C155.616 211.698 135.849 231.465 135.849 255.849C135.849 280.233 155.616 300 180 300ZM170.943 230.943C162.19 230.943 155.094 238.039 155.094 246.792V264.906C155.094 273.659 162.19 280.755 170.943 280.755H189.057C197.81 280.755 204.906 273.659 204.906 264.906V246.792C204.906 238.039 197.81 230.943 189.057 230.943H170.943Z" fill="#BAF300"/>
</svg>
